<?xml version="1.0"?><svg width="793.7007874015749" height="1122.5196850393702" xmlns="http://www.w3.org/2000/svg">
 <defs>
  <linearGradient id="linearGradient88">
   <stop stop-color="#ffffff" offset="0" id="stop89"/>
   <stop stop-color="#000000" stop-opacity="0" offset="1" id="stop90"/>
  </linearGradient>
 </defs>
 <g>
  <title>Layer 1</title>
  <path fill="#bf5f00" fill-rule="evenodd" stroke="#000000" stroke-width="6.016976" stroke-linejoin="round" stroke-miterlimit="4" stroke-dashoffset="0" marker-start="none" marker-mid="none" marker-end="none" id="path121" d="m450.062805,176.359543c-60.800018,0 -105.446289,91.950394 -105.446289,135.688919c0,34.065247 29.97876,63.067749 71.942413,74.258423c-23.408783,3.892487 -45.132233,12.928162 -63.915039,26.186554l-139.749496,-63.292145c-4.657349,-2.10968 -10.603928,-0.878387 -13.318146,2.741547l-19.703613,26.281158c-2.714218,3.619904 -1.130127,8.242065 3.527237,10.351746l132.573456,60.03064c-20.197784,27.377319 -32.291962,61.439484 -32.291962,98.459717c0,89.990662 70.85672,163.027954 158.175995,163.027954c87.319275,0 158.176086,-73.037292 158.176086,-163.027954c0,-33.311401 -9.7323,-64.272827 -26.393066,-90.093231l134.519653,-63.292175c4.610474,-2.17099 6.077087,-6.815521 3.283936,-10.398987l-20.311768,-25.997559c-2.793152,-3.583496 -8.707703,-4.72345 -13.318176,-2.552521l-137.621033,64.804749c-17.367798,-14.248047 -37.709473,-24.712311 -59.901428,-30.440704c48.476318,-8.304626 84.591675,-39.643738 84.591675,-77.047211c0,-43.738525 -54.020386,-135.688919 -114.820435,-135.688919z"/>
  <path fill="#000000" fill-rule="evenodd" stroke="#000000" stroke-width="6.016976" stroke-linejoin="round" stroke-miterlimit="4" stroke-dashoffset="0" marker-start="none" marker-mid="none" marker-end="none" id="path126" d="m497.869446,314.758209a43.690002,36.961609 0 1 1 -87.380005,0a43.690002,36.961609 0 1 1 87.380005,0z"/>
  <path fill="#ff0000" fill-rule="evenodd" stroke="#000000" stroke-width="6.016976" stroke-linejoin="round" stroke-miterlimit="4" stroke-dashoffset="0" marker-start="none" marker-mid="none" marker-end="none" id="path127" d="m451.852051,322.489288c-14.220612,0 -27.087708,2.929443 -37.353943,7.583923c6.897003,12.742157 22.041321,21.636566 39.681122,21.636566c16.864746,0 31.325562,-8.183655 38.606995,-20.030579c-10.705597,-5.658142 -25.072449,-9.189911 -40.934174,-9.189911z"/>
  <path fill="#ffffff" fill-rule="evenodd" stroke="#000000" stroke-width="6.016976" stroke-linejoin="round" stroke-miterlimit="4" stroke-dashoffset="0" marker-start="none" marker-mid="none" marker-end="none" id="rect129" d="m454.17923,277.788727c-8.45932,0 -16.280609,2.13974 -22.973236,5.665649l0,16.416962c0,3.954285 4.258179,7.137817 9.547333,7.137817l15.395142,0c5.289124,0 9.547241,-3.183533 9.547241,-7.137817l0,-20.610474c-3.686707,-0.855621 -7.510101,-1.472137 -11.516479,-1.472137z"/>
  <path fill="#ffffff" fill-rule="evenodd" stroke="#000000" stroke-width="6.016976" stroke-linejoin="round" stroke-miterlimit="4" stroke-dashoffset="0" marker-start="none" marker-mid="none" marker-end="none" id="path131" d="m451.879974,236.537094a25.294209,25.787172 0 1 1 -50.588379,0a25.294209,25.787172 0 1 1 50.588379,0z"/>
  <path fill="#ffffff" fill-rule="evenodd" stroke="#000000" stroke-width="6.016976" stroke-linejoin="round" stroke-miterlimit="4" stroke-dashoffset="0" marker-start="none" marker-mid="none" marker-end="none" id="path132" d="m495.570038,239.975418a22.994738,22.348869 0 1 1 -45.989563,0a22.994738,22.348869 0 1 1 45.989563,0z"/>
  <rect fill="#bf5f00" fill-rule="evenodd" stroke="#000000" stroke-width="6.016975" stroke-linejoin="round" stroke-miterlimit="4" stroke-dashoffset="0" y="14.075097" x="-777.043663" width="85.706703" transform="matrix(-1.06389 -1.18545 1.58562 -0.795389 -240.165 -151.537)" ry="16.723255" rx="14.669187" id="rect141" height="33.44651"/>
  <path fill="#ffffff" fill-rule="evenodd" stroke="#000000" stroke-width="5.352082" stroke-linejoin="round" stroke-miterlimit="4" stroke-dashoffset="0" marker-start="none" marker-mid="none" marker-end="none" id="path133" d="m261.561951,517.466492c-4.749115,13.174622 -7.458862,27.023804 -7.458862,41.399292c0,83.35791 85.534149,151.009583 190.886871,151.009583c97.591644,0 177.99588,-58.084778 189.33548,-132.897339l-372.763489,-59.511536z"/>
  <path fill="#ffffff" fill-rule="evenodd" stroke="#000000" stroke-width="6.016976" stroke-linejoin="round" stroke-miterlimit="4" stroke-dashoffset="0" marker-start="none" marker-mid="none" marker-end="none" id="path135" d="m261.023621,590.680969l367.915955,3.438232"/>
  <path fill="#ffffff" fill-rule="evenodd" stroke="#000000" stroke-width="6.016976" stroke-linejoin="round" stroke-miterlimit="4" stroke-dashoffset="0" marker-start="none" marker-mid="none" marker-end="none" id="path136" d="m582.094666,662.005066l-297.553192,-21.881042"/>
  <path fill="none" fill-rule="evenodd" stroke="#000000" stroke-width="6.016976" stroke-linejoin="round" stroke-miterlimit="4" stroke-dashoffset="0" marker-start="none" marker-mid="none" marker-end="none" id="path139" d="m436.091919,236.985977a3.991566,3.730239 0 1 1 -7.983063,0a3.991566,3.730239 0 1 1 7.983063,0z"/>
  <path fill="none" fill-rule="evenodd" stroke="#000000" stroke-width="6.016976" stroke-linejoin="round" stroke-miterlimit="4" stroke-dashoffset="0" marker-start="none" marker-mid="none" marker-end="none" id="path140" d="m472.0159,237.731995a3.991566,3.730239 0 1 1 -7.983093,0a3.991566,3.730239 0 1 1 7.983093,0z"/>
  <path fill="none" fill-rule="evenodd" stroke="#000000" stroke-width="6.016976" stroke-linejoin="round" stroke-miterlimit="4" stroke-dashoffset="0" marker-start="none" marker-mid="none" marker-end="none" id="path142" d="m446.070801,521.230225a7.983131,5.968389 0 1 1 -15.966095,0a7.983131,5.968389 0 1 1 15.966095,0z"/>
  <rect fill="#bf5f00" fill-rule="evenodd" stroke="#000000" stroke-width="6.016979" stroke-linejoin="round" stroke-miterlimit="4" stroke-dashoffset="0" y="592.898695" x="-237.086421" width="85.706764" transform="matrix(1.38947 -0.979199 1.30975 1.0388 -240.165 -151.537)" ry="16.723269" rx="14.669196" id="rect137" height="33.446537"/>
  <g externalResourcesRequired="false" id="svg_18"/>
 </g>
</svg>