<?xml version="1.0" encoding="utf-8"?>
<!-- Generator: Adobe Illustrator 16.0.0, SVG Export Plug-In . SVG Version: 6.00 Build 0)  -->
<!DOCTYPE svg PUBLIC "-//W3C//DTD SVG 1.1//EN" "http://www.w3.org/Graphics/SVG/1.1/DTD/svg11.dtd">
<svg version="1.1" id="Layer_1" xmlns="http://www.w3.org/2000/svg" xmlns:xlink="http://www.w3.org/1999/xlink" x="0px" y="0px"
	 width="841.89px" height="595.28px" viewBox="0 0 841.89 595.28" enable-background="new 0 0 841.89 595.28" xml:space="preserve">
<path fill="none" d="M155.746,473.235c0.072,0.014,0.144,0.026,0.215,0.039C155.889,473.262,155.817,473.249,155.746,473.235z"/>
<path fill="none" d="M156.202,473.315c0.07,0.012,0.14,0.023,0.209,0.034C156.342,473.339,156.272,473.327,156.202,473.315z"/>
<path fill="none" d="M155.419,473.027c-0.045,0.017-0.091,0.032-0.138,0.047C155.328,473.06,155.375,473.044,155.419,473.027z"/>
<path fill="none" d="M155.854,472.792c-0.03,0.023-0.061,0.046-0.094,0.067C155.793,472.838,155.824,472.815,155.854,472.792z"/>
<path fill="none" d="M155.65,472.924c-0.035,0.018-0.071,0.035-0.108,0.052C155.579,472.959,155.615,472.941,155.65,472.924z"/>
<path fill="none" d="M158.371,473.428c0.066-0.008,0.133-0.014,0.198-0.023C158.504,473.414,158.438,473.42,158.371,473.428z"/>
<path fill="none" d="M157.953,473.459c0.067-0.002,0.135-0.003,0.201-0.008C158.088,473.456,158.021,473.457,157.953,473.459z"/>
<path fill="none" d="M156.652,473.383c0.068,0.009,0.137,0.019,0.205,0.026C156.79,473.401,156.721,473.392,156.652,473.383z"/>
<path fill="none" d="M157.093,473.432c0.068,0.006,0.137,0.013,0.205,0.018C157.23,473.444,157.161,473.438,157.093,473.432z"/>
<path fill="none" d="M199.276,476.482c0.533,0.056,1.287,0.45,2.383,1.024l0.102,0.063c0,0-0.102-0.063-0.101-0.063
	C200.562,476.933,199.809,476.538,199.276,476.482z"/>
<path fill="none" d="M826.726,492.549c0.018,0.147,0.018,0.292,0.013,0.437C826.742,492.841,826.743,492.696,826.726,492.549z"/>
<path fill="none" d="M308.137,457.337c-1.029-0.077-1.909-0.823-2.777-1.618C306.228,456.514,307.107,457.26,308.137,457.337z"/>
<path fill="none" d="M156.018,472.628c-0.024,0.03-0.048,0.061-0.076,0.089C155.969,472.688,155.994,472.658,156.018,472.628z"/>
<path fill="none" d="M158.777,473.361c0.065-0.014,0.131-0.025,0.196-0.043C158.909,473.336,158.843,473.348,158.777,473.361z"/>
<path fill="none" d="M205.579,478.614c1.103-0.66,2.26-1.396,2.387-2.634C207.838,477.219,206.682,477.954,205.579,478.614z"/>
<path fill="none" d="M156.131,472.422c-0.015,0.041-0.03,0.082-0.052,0.119C156.101,472.504,156.116,472.463,156.131,472.422z"/>
<path fill="none" d="M156.181,472.162c-0.002,0.058-0.005,0.114-0.017,0.165C156.176,472.276,156.179,472.22,156.181,472.162z"/>
<path fill="none" d="M156.137,471.764c0.03,0.111,0.045,0.212,0.05,0.307C156.182,471.976,156.167,471.875,156.137,471.764z"/>
<path fill="none" d="M313.745,457.915c-0.991-0.511-1.741-1.44-2.641-2.137h0C312.004,456.475,312.754,457.404,313.745,457.915z"/>
<path fill="none" d="M155.292,473.147c0.068,0.014,0.135,0.027,0.203,0.04C155.428,473.175,155.36,473.161,155.292,473.147z"/>
<path fill="none" d="M206.126,472.284c0.002-0.102,0.03-0.206,0.093-0.314C206.156,472.078,206.127,472.183,206.126,472.284z"/>
<path fill="none" d="M159.176,473.253c0.063-0.021,0.126-0.038,0.188-0.062C159.303,473.214,159.239,473.232,159.176,473.253z"/>
<path fill="none" d="M157.564,501.271c0.012,0.602-0.113,1.252-0.117,1.886C157.451,502.522,157.576,501.872,157.564,501.271z"/>
<path fill="none" d="M826.741,493.097c-0.009,0.13-0.04,0.257-0.069,0.385C826.701,493.354,826.732,493.227,826.741,493.097z"/>
<path fill="none" d="M826.146,490.882c0.289,0.535,0.494,1.078,0.568,1.61C826.64,491.96,826.435,491.416,826.146,490.882z"/>
<path fill="none" d="M826.421,494.146c-0.066,0.114-0.157,0.225-0.246,0.336C826.264,494.371,826.354,494.261,826.421,494.146z"/>
<path fill="none" d="M826.059,494.638c-0.109,0.119-0.245,0.233-0.384,0.348C825.812,494.871,825.95,494.757,826.059,494.638z"/>
<path fill="none" d="M155.144,473.118c0.012-0.003,0.022-0.008,0.034-0.011c-0.013,0.003-0.025,0.006-0.038,0.01
	C155.142,473.117,155.143,473.118,155.144,473.118z"/>
<path fill="none" d="M159.938,472.894c0.057-0.035,0.115-0.067,0.17-0.107C160.052,472.826,159.995,472.858,159.938,472.894z"/>
<path fill="none" d="M160.641,472.311c0.05-0.053,0.101-0.1,0.149-0.156C160.741,472.211,160.69,472.258,160.641,472.311z"/>
<path fill="none" d="M159.564,473.099c0.06-0.027,0.121-0.053,0.18-0.085C159.685,473.046,159.624,473.071,159.564,473.099z"/>
<path fill="none" d="M160.986,471.897c0.039-0.053,0.08-0.1,0.119-0.155C161.066,471.798,161.025,471.845,160.986,471.897z"/>
<path fill="none" d="M160.458,472.5c-0.053,0.049-0.108,0.089-0.162,0.134C160.35,472.589,160.405,472.549,160.458,472.5z"/>
<path fill="none" d="M157.73,473.465c-0.067-0.001-0.136-0.004-0.204-0.006C157.595,473.461,157.663,473.464,157.73,473.465z"/>
<path fill="none" d="M826.645,493.631c-0.036,0.118-0.095,0.233-0.15,0.35C826.55,493.864,826.608,493.749,826.645,493.631z"/>
<path fill="#E1E2DB" d="M154.994,473.088c0,0-0.064,0.084-0.067,0.087c1.312,2.518,2.292,4.946,0.13,7.637
	c-0.545,0.679-0.48,1.847-1.702,2.012c-0.499,0.067-0.994,0.212-0.913,0.863c0.097,0.78,0.688,0.909,1.339,0.879
	c2.656-0.12,3.443,0.83,1.889,3.21c-0.389,0.596-0.342,1.214,0.541,1.286c0.572,0.046,1.736-0.09,1.591-0.387
	c-1.718-3.514,1.926-3.182,3.19-4.431c0.993-0.98,0.797-1.89,0.143-2.541c-3.205-3.186,0.049-2.622,1.72-3.427
	c1.637-0.789,2.455,1.167,4.362,0.832c-3.803-1.371-3.803-1.371-1.41-4.399c-1.528-0.179-4.495,0.71-2.292-2.529
	c0.145-0.213-0.214-0.972-0.535-1.253c-0.563-0.494-1.283-0.211-1.581,0.332c-0.095,0.174-0.194,0.334-0.295,0.483
	c-0.039,0.056-0.08,0.103-0.119,0.155c-0.065,0.088-0.129,0.178-0.196,0.257c-0.049,0.057-0.1,0.104-0.149,0.156
	c-0.061,0.064-0.121,0.132-0.183,0.189c-0.053,0.049-0.108,0.089-0.162,0.134c-0.062,0.052-0.124,0.106-0.188,0.152
	c-0.056,0.04-0.113,0.072-0.17,0.107c-0.064,0.041-0.128,0.085-0.194,0.12c-0.059,0.032-0.12,0.058-0.18,0.085
	c-0.066,0.031-0.132,0.064-0.2,0.092c-0.062,0.024-0.125,0.042-0.188,0.062c-0.067,0.022-0.134,0.047-0.203,0.065
	c-0.064,0.018-0.13,0.029-0.196,0.043c-0.069,0.015-0.138,0.031-0.208,0.043c-0.065,0.01-0.132,0.016-0.198,0.023
	c-0.072,0.009-0.144,0.019-0.217,0.023c-0.066,0.005-0.134,0.006-0.201,0.008c-0.074,0.003-0.148,0.006-0.223,0.006
	c-0.067-0.001-0.136-0.004-0.204-0.006c-0.076-0.003-0.152-0.005-0.229-0.01c-0.068-0.005-0.137-0.012-0.205-0.018
	c-0.078-0.007-0.156-0.014-0.235-0.022c-0.068-0.008-0.137-0.018-0.205-0.026c-0.08-0.011-0.16-0.021-0.241-0.033
	c-0.069-0.011-0.139-0.022-0.209-0.034c-0.081-0.013-0.161-0.026-0.242-0.041c-0.071-0.013-0.143-0.025-0.215-0.039
	c-0.083-0.016-0.167-0.031-0.25-0.048c-0.068-0.013-0.135-0.026-0.203-0.04c-0.049-0.01-0.099-0.02-0.148-0.029
	c-0.001,0-0.002-0.001-0.004-0.001c0.012-0.004,0.025-0.007,0.038-0.01c0.035-0.011,0.069-0.022,0.104-0.033
	c0.047-0.015,0.093-0.03,0.138-0.047c0.042-0.017,0.083-0.034,0.123-0.052c0.037-0.017,0.073-0.034,0.108-0.052
	c0.039-0.021,0.075-0.042,0.11-0.064c0.033-0.021,0.064-0.044,0.094-0.067c0.031-0.023,0.061-0.049,0.088-0.075
	c0.028-0.028,0.052-0.059,0.076-0.089c0.022-0.028,0.043-0.056,0.062-0.087c0.021-0.037,0.037-0.078,0.052-0.119
	c0.012-0.031,0.025-0.061,0.033-0.095c0.012-0.051,0.015-0.107,0.017-0.165c0.001-0.031,0.007-0.059,0.005-0.092
	c-0.004-0.095-0.02-0.195-0.05-0.307c-0.153-0.557-0.626-0.72-1.339-0.749c-0.352-0.015-0.674-0.048-0.982-0.09
	c-0.148,0.594-0.251,1.22-0.375,1.812C153.273,473.54,154.305,473.598,154.994,473.088z"/>
<path fill="#E1E2DB" d="M707.574,493.023c-0.338-0.668-0.418-2.165-1.309-1.313c-0.297,0.284-0.599,0.507-0.902,0.682
	c0.007,0.019,0.013,0.037,0.019,0.056C705.917,494.086,706.65,494.2,707.574,493.023z"/>
<path fill="#E1E2DB" d="M708.235,493.378c0.016-0.121,0.088-0.312,0.038-0.352c-0.148-0.121-0.483-0.28-0.503-0.254
	c-0.067,0.096-0.131,0.168-0.196,0.251c0.019,0.037,0.037,0.072,0.058,0.104C707.729,493.277,708.028,493.298,708.235,493.378z"/>
<path fill="#E1E2DB" d="M798.104,501.437c0.713,1.256,1.638,0.664,2.475,0.337c0.907-0.354,1.834-0.921,1.41-2.101
	c-0.426-1.187-1.394-1.525-2.66-1.294c-0.209,0.038-0.424,0.066-0.638,0.096c-0.091,0.062-0.182,0.123-0.282,0.183
	C797.143,499.403,797.511,500.389,798.104,501.437z"/>
<path fill="#8C8F94" d="M836.828,213.511c0.344,0.417,1.009,0.328,1.266-0.155c0.898-1.696-0.042-2.978-1.396-4.766
	C835.915,210.65,835.696,212.139,836.828,213.511z"/>
<path fill="#8C8F94" d="M835.079,205.334c-0.004,0.046,0.159,0.106,0.245,0.16c0.047-0.092,0.093-0.183,0.14-0.274
	C835.25,204.966,835.106,205.003,835.079,205.334z"/>
<path fill="#8C8F94" d="M609.53,489.36c-1.808,0.212-0.636-2.034-1.443-2.782c-0.644-0.597-1.153-1.634-2.353-1.35
	c0.24,4.134,3.691,6.773,7.196,5.5c1.318-0.479,3.065-0.403,2.38,1.132c-0.3,0.673-0.364,1.146-0.282,1.495
	c0.248,1.046,1.817,0.965,2.309,1.746c0.702-2.3-0.489-3.941-1.9-5.518c-0.948-1.058-2.339-1.804-2.472-3.447
	C612.706,488.152,611.089,489.178,609.53,489.36z"/>
<path fill="#8C8F94" d="M198.956,474.438c-2.668,0.478-3.604,2.551-4.536,4.666c0.392,0.78,0.82,1.554,0.513,2.479
	c1.245-0.474,1.565,1.374,2.731,1.149c0.122-1.766,0.213-3.09,0.336-4.055c0.062-0.482,0.131-0.875,0.217-1.188
	c0.043-0.156,0.089-0.293,0.141-0.41c0.207-0.471,0.492-0.644,0.918-0.599c0.533,0.056,1.287,0.45,2.383,1.024
	c-1.355-1.228,0.359-3.833-2.059-4.583C199.655,473.55,199.645,474.315,198.956,474.438z"/>
<path fill="#E1E2DB" d="M194.419,479.104c-1.052,0.494-2.083,1.042-3.165,1.461c-0.591,0.229-1.556-0.489-1.814,0.568
	c-0.206,0.841,0.495,1.419,1.113,1.709c1.864,0.872,1.607,2.361,0.975,4.009c2.918-0.908,1.696-3.956,3.405-5.268
	C195.24,480.658,194.812,479.885,194.419,479.104z"/>
<path fill="#8C8F94" d="M204.1,479.602c0.389-0.346,0.927-0.657,1.479-0.987c1.103-0.66,2.26-1.396,2.387-2.634
	c0.064-0.618-0.13-1.363-0.716-2.287c-1.44,1.844-3.123,3.345-5.49,3.877C202.555,478.324,202.488,481.033,204.1,479.602z"/>
<path fill="#E1E2DB" d="M826.628,503.201c-1.373,1.089-3.795,0.35-4.444,2.422c-0.222,0.705,0.288,1.839,1.414,1.678
	c1.938-0.278,3.057-1.792,4.335-3.152C827.723,503.406,827.069,502.852,826.628,503.201z"/>
<path fill="#E1E2DB" d="M201.829,486.398c-1.104-0.243-2.463-0.735-3.214,0.744c-0.685,1.348,0.478,1.626,1.291,2.105
	c0.8,0.471,1.013,1.677,2.156,1.765c0.675-0.86-0.274-1.628-0.099-2.42C202.13,487.825,204.142,486.911,201.829,486.398z"/>
<path fill="#8C8F94" d="M308.137,457.337c0.858,0.065,1.82-0.335,2.967-1.559h0c-2.701-0.403-4.612-4.322-7.973-1.79
	c0.789,0.371,1.505,1.067,2.229,1.73C306.228,456.514,307.107,457.26,308.137,457.337z"/>
<path fill="#8C8F94" d="M276.068,458.875c-0.822-0.205-1.635-0.514-2.469-0.594c-1.997-0.192-4.508,1.917-4.542,3.723
	c0.646-0.123,1.294-0.239,1.932-0.38C272.902,461.202,274.72,460.564,276.068,458.875z"/>
<path fill="#E1E2DB" d="M148.641,492.686c-1.221,2.002-4.725-0.793-5.405,2.723c2.139,0.278,3.459-1.157,5.136-1.289
	c0.579-0.046,0.933-0.206,0.677-0.853C148.963,493.053,148.779,492.878,148.641,492.686z"/>
<path fill="#E1E2DB" d="M194.893,497.842c1.452-0.226,3.373,0.945,4.185-1.134c0.104-0.268-0.08-0.917-0.275-0.988
	C196.815,495.002,196.396,497.428,194.893,497.842z"/>
<path fill="#8C8F94" d="M156.864,499.679c0.54,0.438,0.688,0.99,0.7,1.592c0.012,0.602-0.113,1.252-0.117,1.886
	c-0.001,0.126,0.003,0.252,0.013,0.377c0.054,0.623,0.277,1.217,0.928,1.713c0.764-2.584,1.877-4.877-0.045-7.141
	C157.85,498.63,157.357,499.154,156.864,499.679z"/>
<path fill="#8C8F94" d="M319.764,431.967c-2.857-1.758-5.725,0.448-8.261-0.765c0.103,0.9,1.766,0.538,1.444,1.783
	C314.918,431.523,317.35,432.98,319.764,431.967z"/>
<path fill="#E1E2DB" d="M157.034,496.86c-0.818-0.33-1.972,0.818-2.096,1.621c-0.022,0.141-0.02,0.26,0.003,0.361
	c0.156,0.711,1.288,0.559,1.923,0.836c0.493-0.524,0.986-1.049,1.479-1.573c1.148-0.685,3.373,0.599,3.646-2.253
	C160.282,496.525,158.893,497.608,157.034,496.86z"/>
<path fill="#8C8F94" d="M299.358,454.188c-2.479-2.228-3.97-1.836-4.304,1.624c0.442-0.458,0.931-0.791,1.454-1.031
	C297.382,454.38,298.351,454.233,299.358,454.188z"/>
<path fill="#8C8F94" d="M198.863,470.73c1.159-0.285,2.771,0.047,3.056-1.569c0.123-0.698-0.874-0.901-1.615-0.808
	C201.16,469.956,199.628,470.111,198.863,470.73z"/>
<path fill="#8C8F94" d="M198.444,472.679c-0.274-0.564-0.515-1.133-0.192-1.763C196.908,471.657,197.156,472.225,198.444,472.679z"
	/>
<path fill="#8C8F94" d="M312.646,433.327c0.061-0.059,0.181-0.175,0.182-0.175c-0.168-0.009-0.333,0.016-0.492,0.07l0.276,0.137
	L312.646,433.327z"/>
<path fill="#676C78" d="M713.854,483.287c-2.146-0.038-4.339,0.235-5.959,1.967c-0.429,0.459-0.68,1.046-0.406,1.652
	c0.229,0.508,0.727,0.538,1.77,0.149c1.401-0.286,3.573-0.139,5.101-1.826C715.222,484.278,715.348,483.313,713.854,483.287z"/>
<path fill="#676C78" d="M62.245,234.255c1.51,0.013,3.685,0.29,3.928-1.661c0.263-2.109-1.93-1.565-3.217-1.874
	c-1.518,0.244-3.709-0.239-3.948,1.735C58.755,234.542,60.902,234.244,62.245,234.255z"/>
<g>
	<path fill="#5E5E5E" d="M609.066,284.271c0.117-2.535,0.234-5.07,0.351-7.606C608.793,279.439,608.724,281.952,609.066,284.271z"/>
	<path fill="#5E5E5E" d="M792.367,478.797c6.582-6.121,11.586-10.771,15.06-14.001c3.946,1.259,6.845,2.182,9.743,3.107
		c0.616-0.65,1.229-1.3,1.843-1.951c-1.492-3.14-2.983-6.275-4.883-10.271c1.728-4.04,4.644-9.489,6.367-15.296
		c1.654-5.578,2.692-10.866,10.294-8.933c1.994-6.396,0.224-9.546-4.942-9.014c-2.593-12.761-5.086-25.058-7.661-37.728
		c0.417-0.126,1.924-0.566,4.45-1.309c-0.88-2.682-1.018-6.073-2.735-7.361c-1.267-0.952-4.591,0.833-6.999,1.4
		c0.649-0.261,1.294-0.517,1.942-0.775c-7.25-7.673-14.502-15.345-21.753-23.017c-0.801,0.181-0.009-2.394-0.142-4.921
		c-0.043-0.863-3.061-2.591-3.584-2.237c-2.264,1.528-4.106,3.678-5.867,5.375c-9.547-1.943-19.68-4.001-30.306-6.162
		c-0.076-0.929,0.25-2.772-0.467-4.021c-0.65-1.136-2.433-2.234-3.709-2.228c-1.262,0.009-3.224,1.148-3.655,2.265
		c-2.911,7.539-4.455,8.688-13.33,8.242v-14.045c-0.553,0.048-1.109,0.096-1.663,0.143c-0.262,16.576-0.262,16.576-12.9,23.227
		c-1.803-1.669-3.173-3.554-5.015-4.384c-0.918-0.414-3.854,1.042-3.896,1.761c-0.153,2.792,0.487,5.626,0.922,9.156
		c-3.87,5.058-8.548,11.175-12.383,16.188c-3.102-0.551-6.619-2.096-7.555-1.135c-1.579,1.626-1.521,4.839-2.139,7.338
		c2.741,0.519,4.44,0.839,5.354,1.014c-1.954,11.063-3.816,21.61-5.624,31.847c-3.506,0.828-6.99,1.652-10.597,2.505
		c-0.402-0.729-1.001-1.816-1.605-2.912c-0.935,1.692-1.682,3.046-2.602,4.708c-0.97-1.986-1.713-3.512-2.85-5.846
		c-1.001,8.491-1.862,16.008-2.779,23.52c-0.564,4.651,0.358,10.612-2.182,13.637c-4.254,5.065-3.952,10.241-4.398,15.802
		c-0.107,1.346-1.735,2.566-2.664,3.845c-0.686-0.337-1.374-0.674-2.062-1.007V332.344h-40.744c-0.234,1.096-0.47,2.193-0.704,3.293
		c1.803,0.812,3.594,2.289,5.415,2.328c10.581,0.224,21.169,0.108,31.755,0.108c0.004,0.579,0.008,1.157,0.013,1.733h-5.856
		c-8.815,0-17.635-0.121-26.441,0.115c-1.624,0.043-3.211,1.533-4.812,2.354c0.261,0.848,0.521,1.699,0.781,2.547h36.491
		c-0.011,0.61-0.02,1.22-0.026,1.828h-36.427c-0.282,0.733-0.562,1.467-0.846,2.198c1.508,0.915,2.973,2.512,4.535,2.623
		c4.896,0.344,9.833,0.128,14.755,0.13h17.742c-0.009,0.498-0.017,0.995-0.024,1.494c-1.988,0.096-3.978,0.273-5.966,0.28
		c-8.612,0.031-17.226-0.122-25.829,0.129c-1.721,0.051-3.397,1.571-5.093,2.41c0.294,0.893,0.591,1.787,0.888,2.678h36.305
		c-0.024,0.619-0.048,1.242-0.067,1.865h-36.604c-0.157,0.726-0.316,1.453-0.472,2.179c1.613,0.536,3.225,1.506,4.848,1.536
		c9.224,0.148,18.449,0.039,27.676,0.106c1.555,0.01,3.103,0.446,4.653,0.682c-0.057,0.517-0.112,1.033-0.168,1.547h-6.068
		c-8.61,0-17.224-0.111-25.83,0.099c-1.612,0.041-3.193,1.362-4.788,2.093c1.67,0.88,3.261,2.049,5.039,2.548
		c1.521,0.428,3.254,0.091,4.896,0.091h26.587c0.036,0.516,0.069,1.029,0.104,1.547c-1.888,0.141-3.776,0.401-5.666,0.409
		c-8.815,0.047-17.635-0.099-26.445,0.146c-1.516,0.04-2.989,1.625-4.481,2.494c1.491,0.646,2.97,1.819,4.474,1.849
		c9.222,0.177,18.451,0.059,27.674,0.124c1.548,0.013,3.09,0.437,4.636,0.67c-9.787,1.476-19.403,1.316-29.007,1.578
		c-2.613,0.072-5.191,1.418-7.785,2.179c2.526,0.846,5.032,2.344,7.582,2.42c9.607,0.291,19.228,0.116,28.846,0.116
		c0.009,0.545,0.017,1.087,0.025,1.634c-1.917,0.113-3.831,0.319-5.746,0.326c-8.815,0.038-17.635-0.075-26.444,0.125
		c-1.439,0.034-2.851,1.385-4.275,2.127c1.369,0.772,2.724,2.184,4.109,2.214c9.016,0.207,18.041,0.082,27.058,0.134
		c1.85,0.009,3.697,0.296,5.545,0.455c-1.969,1.525-3.871,1.68-5.774,1.688c-8.199,0.025-16.403-0.115-24.599,0.101
		c-2.117,0.055-4.202,1.191-6.305,1.835c2.207,0.762,4.393,2.119,6.618,2.188c8.604,0.257,17.218,0.073,25.827,0.139
		c1.406,0.01,2.81,0.447,4.213,0.689c-10.757,1.252-21.38,1.159-31.992,1.359c-1.585,0.027-3.145,1.445-4.714,2.221
		c1.489,0.834,2.969,2.355,4.48,2.389c9.425,0.225,18.856,0.09,28.288,0.142c1.381,0.008,2.757,0.377,4.13,0.579
		c-0.061,0.582-0.123,1.162-0.187,1.74c-1.912,0-3.824,0-5.738,0.001c-9.019,0-18.042-0.07-27.06,0.087
		c-1.304,0.024-2.586,1.152-3.879,1.767c1.316,0.836,2.615,2.364,3.952,2.397c9.016,0.22,18.036,0.097,27.058,0.148
		c1.867,0.008,3.729,0.275,5.594,0.424c-0.035,0.512-0.068,1.021-0.104,1.531h-5.77c-8.815,0-17.631,0.047-26.446-0.025
		c-3.14-0.024-5.383,0.425-3.548,5.133h36.035c0.008,0.614,0.018,1.226,0.022,1.838h-36.687c-0.227,0.839-0.455,1.68-0.682,2.52
		c1.521,0.751,3.021,2.085,4.57,2.148c6.141,0.254,12.296,0.107,18.445,0.11h14.059c-0.01,0.604-0.019,1.205-0.027,1.809
		c-9.575,0-19.154-0.164-28.722,0.106c-2.602,0.072-5.165,1.45-7.745,2.228c2.67,0.732,5.323,2.026,8.01,2.098
		c9.498,0.26,19.006,0.101,28.507,0.101c0,0.555,0,1.108,0.002,1.665h-5.961c-8.816,0.003-17.631-0.058-26.444,0.033
		c-3.808,0.039-3.806,0.182-3.266,5.312h35.916c0,0.634,0.002,1.27,0.002,1.902h-36.729c-0.21,0.817-0.417,1.635-0.625,2.451
		c1.556,0.735,3.09,2.055,4.669,2.107c6.963,0.235,13.938,0.105,20.908,0.105h11.467c-0.027,0.592-0.055,1.182-0.078,1.77h-5.986
		c-8.61,0.003-17.224-0.138-25.825,0.122c-1.684,0.05-3.319,1.645-4.978,2.526c0.302,0.885,0.602,1.77,0.903,2.655h36.277
		c-0.022,0.614-0.044,1.229-0.064,1.842h-36.593c-0.218,0.78-0.435,1.561-0.652,2.342c1.854,0.771,3.693,2.172,5.559,2.207
		c10.575,0.218,21.156,0.107,31.735,0.107c-0.007,0.463-0.015,0.927-0.023,1.391h-38.047V300.831
		c0.766-0.066,1.533-0.132,2.301-0.197c2.441,9.765-0.282,20.141,2.566,30.159c1.426-1.834,2.174-3.828,2.213-5.837
		c0.266-12.979,0.215-12.98,13.405-12.596c0.616,0.017,1.234,0.002,1.847,0.059c8.312,0.767,9.156,1.729,9.214,10.008
		c0.019,2.802,0.271,5.604,0.419,8.405c0.54-0.068,1.08-0.135,1.621-0.202c0-2.534-0.044-5.068,0.008-7.6
		c0.209-9.545-1.292-11.738-10.921-11.68c-6.297,0.04-10.033-2.55-13.913-6.993c-5.467-6.261-11.704-11.999-12.901-20.086
		c-0.101,2.194-0.201,4.389-0.303,6.583c-5.258-4.466-2.575-10.405-3.875-15.24v26.08c2.043,0.935,3.633,1.667,5.882,2.698
		c-2.876,1.596-4.654,2.58-7.425,4.115c3.181,1.28,4.916,1.98,7.711,3.104c-2.838,1.315-4.638,2.148-7.816,3.622
		c3.088,1.457,4.941,2.33,7.68,3.62c-2.794,1.246-4.652,2.073-8.14,3.625c3.295,1.456,5.185,2.294,7.234,3.199
		c-1.985,1.477-3.691,2.746-5.399,4.014c1.796,1.174,3.591,2.348,5.617,3.675c-2.424,1.156-4.321,2.062-7.453,3.553
		c3.45,1.393,5.327,2.151,7.678,3.101c-6.756,3.479-6.756,3.479-0.622,7.438c-6.086,3.743-6.086,3.743,0.58,7.485
		c-2.316,0.921-4.198,1.666-7.748,3.077c3.33,1.55,5.319,2.476,7.53,3.505c-2.199,1.55-3.979,2.802-5.757,4.054
		c1.823,1.095,3.645,2.19,6.188,3.72c-2.601,0.762-4.39,1.283-6.898,2.016v103.303c-0.64,0.005-1.28,0.01-1.918,0.016v-68.63
		c-6.466-0.524-11.864-0.968-18.349-1.5v70.293c-0.7,0.037-1.396,0.073-2.096,0.11c-0.181-2.246-0.492-4.488-0.526-6.734
		c-0.578-39.352-0.958-78.709-1.833-118.055c-0.142-6.371,0.972-10.554,7.607-11.973c0.205-0.046,0.31-0.573,0.455-0.862
		c-2.077-0.27-4.142-0.534-5.201-0.671c1.003-3.406,1.854-6.288,2.938-9.961c-5.943,0.49-11.382,0.941-16.82,1.391l-0.013-0.012
		c2.722,2.424,2.835,4.472-0.711,5.955c1.781,0.457,3.691,0.948,5.599,1.438c-0.087,0.421-0.176,0.843-0.264,1.264
		c-2.189,0.191-4.377,0.383-6.563,0.573c9.523,1.264,8.431,7.993,8.298,14.551c-0.796,39.143-1.438,78.288-2.159,117.432
		c-0.032,1.841-0.304,3.675-0.466,5.512c-0.637-0.044-1.273-0.087-1.909-0.133v-75.027c-9.937-0.631-18.857-1.198-28.387-1.803
		c0,7.7-0.152,14.837,0.101,21.963c0.069,1.978,1.279,3.938,2.086,5.859c2.335,5.554,6.179,10.929,6.779,16.653
		c0.985,9.391-0.093,19.006-0.375,28.524c-0.037,1.336-0.481,2.665-0.735,3.995c-3.292-15.907,2.386-33.008-8.477-47.281
		c-2.54,2.66-4.87,5.098-8.266,8.652c-1.417-5.389-2.234-8.488-3.173-12.056c-2.515,0.396-4.862,0.764-6.591,1.036
		c-1.399,3.493-2.541,6.346-3.546,8.842c-3.088-1.571-5.303-2.704-8.406-4.283c-0.465-2.35-1.203-6.071-2.257-11.397
		c-1.483,6.194-2.587,10.798-3.688,15.402c-2.719-2.156-3.695-4.767-5.331-6.862c-1.286-1.653-3.297-2.815-5.145-3.937
		c-1.948-1.185-4.084-2.062-6.508-3.256c-0.06,0.161-0.579,1.59-0.987,2.698h-14.642c-1.65-15.629-3.244-30.682-4.836-45.735
		c-0.957,0.013-1.915,0.022-2.872,0.032c-1.142,12.945-2.263,25.894-3.443,38.835c-0.182,1.992-0.005,4.466-1.1,5.829
		c-2.327,2.897-15.251,0.193-16.469-2.249c-1.896,1.03-3.662,1.921-5.36,2.931c-2.045,1.214-4.401,2.187-5.946,3.881
		c-1.976,2.168-3.272,4.951-5.8,8.956c-1.111-7.041-1.883-11.952-2.658-16.861c-0.357,0.062-0.716,0.127-1.072,0.192
		c-0.991,4.473-1.982,8.95-2.675,12.075c-2.436,0.726-3.768,1.47-5.068,1.421c-1.683-0.065-4.808-0.825-4.793-1.183
		c0.243-6.065-4.014-6.548-8.607-7.175c-0.469,1.252-0.848,2.619-1.477,3.861c-1.01,1.992-1.742,4.917-3.384,5.633
		c-3.538,1.546-3.93-1.986-5.133-4.28c-0.403-0.771-3.422-1.159-3.499-0.977c-2.195,5.154-5.32,10.278-5.912,15.669
		c-1.003,9.119-0.357,18.412-0.464,27.636c-0.019,1.655-0.325,3.305-0.498,4.96c-0.712-0.092-1.426-0.182-2.139-0.273
		c1.046-17.245-3.866-35.144,8.371-51.767c4.441-1.809,6.679,2.174,8.412,6.603c5.026-8.78,6.234-17.721,5.719-27.125
		c-0.358-6.537,0.042-13.114,0.049-19.672c0.009-9.705,0.009-19.415,0.008-29.273c-9.782-2.987-18.997-7.34-26.583-14.627
		c-0.678-0.65-1.219-1.343-1.654-2.057v7.423h6.423c0.646,5.189-9.766,2.064-5.969,8.997c1.967,0.193,3.93,0.384,5.854,0.572
		c1.079,5.204-10.445,2.021-5.707,9.243c1.937,0.146,3.875,0.299,5.751,0.445c0.699,5.13-10.641,1.841-5.46,9.795h5.637
		c0.102,0.516,0.204,1.033,0.304,1.55c-1.732,0.658-3.843,0.915-5.093,2.09c-1.263,1.187-1.67,3.28-2.745,5.602h7.464
		c0.151,0.5,0.301,0.999,0.451,1.499c-2.323,1.154-4.646,2.31-7.323,3.638v59.305c-5.812-4.119-14-2.959-15.861-12.016
		c-1.504,0.41-3.164,1.44-4.447,1.089c-2.255-0.615-5.487-1.596-6.153-3.279c-1.383-3.485-1.52-7.514-1.863-11.349
		c-0.616-6.867-1.007-13.758-1.507-20.829h-4.418c-0.271,3.382-0.521,6.469-0.916,11.391c-7.576-7.714-21.114-7.426-18.417-21.694
		c0.156-0.817-0.969-1.8-1.176-2.773c-0.646-3.051-1.154-6.13-1.684-9.204c-0.179-1.038-0.257-2.095-0.382-3.141
		c-1.599,7.105-2.602,14.094-3.706,21.065c-0.269,1.7-0.33,4.195-1.403,4.869c-4.916,3.094-10.159,5.671-16,8.821
		c-0.279-2.619-0.042-5.152-0.924-7.205c-0.766-1.786-2.796-3.031-5.072-5.327v12.886c-9.642-7.479-22.51-6.291-28.873-17.142
		c-0.391-0.666-1.832-0.925-2.813-1.006c-6.295-0.497-12.592-1.136-18.897-1.253c-6.171-0.117-10.937,3.315-16.206,6.265
		c-7.753,4.341-16.636,6.659-25.035,9.852c-19.831,7.541-39.604,15.236-59.552,22.45c-2.659,0.965-6.757,0.408-9.19-1.081
		c-3.172-1.939-5.347-5.509-8.228-8.685c-2.197,3.149-3.31,4.742-4.483,6.422c-2.175-1.298-4.001-2.386-6.288-3.751
		c1.56-0.921,2.739-1.62,4.388-2.596c-2.879-1.686-5.106-2.988-7.007-4.101c-2.245,1.523-4.346,2.949-6.786,4.606
		c1.83,0.689,3.148,1.186,5.193,1.959c-2.77,1.569-4.758,2.703-6.94,3.939c-1.246-1.946-2.278-3.558-4.27-6.672
		c-3.338,3.412-5.998,6.378-8.947,9.023c-1.248,1.123-3.036,1.936-4.697,2.236c-2.079,0.385-4.279,0.093-6.266,0.093
		c-0.398,2.968-0.664,4.946-0.908,6.754c-7.608,0.23-14.837,0.818-22.036,0.558c-6.434-0.231-13.882-3.814-19.007-1.59
		c-7.817,3.387-14.477-0.628-21.633,0.184c-4.852,0.553-7.198,2.082-6.971,7.246c0.283,6.436,0.325,12.888,0.258,19.329
		c-0.015,1.439-0.683,3.978-1.442,4.136c-8.611,1.791-8.045,8.387-7.272,14.41c0.984,7.661-1.371,12.833-8.375,16.3
		c-2.86,1.417-5.249,3.914-7.616,6.171c-8.135,7.757-14.331,16.667-16.415,28.021c185.205,0,852.841-0.646,944.466-0.646
		C873.959,504.293,842.013,474.168,792.367,478.797z M20.879,466.729c-0.022,1.327-0.402,2.704-0.928,3.926
		c-0.126,0.297-1.911,0.382-2.195,0.007c-0.776-1.025-1.16-2.352-1.222-2.488c0-6.913-0.075-12.564,0.058-18.211
		c0.03-1.242,0.655-2.553,1.319-3.644c0.188-0.309,1.967-0.215,2.162,0.147c0.53,0.997,0.808,2.232,0.823,3.377
		C20.968,455.474,20.976,461.102,20.879,466.729z M28.126,466.653c-0.024,1.333-0.38,2.72-0.907,3.944
		c-0.138,0.322-1.896,0.463-2.195,0.099c-0.81-0.985-1.234-2.287-1.309-2.435c0-6.914-0.071-12.581,0.056-18.246
		c0.028-1.254,0.613-2.574,1.253-3.683c0.179-0.309,2.016-0.215,2.162,0.112c0.539,1.203,0.922,2.579,0.944,3.895
		C28.226,455.776,28.222,461.217,28.126,466.653z M35.019,468.011c-0.029,1-1.378,1.958-2.118,2.936
		c-0.674-1.015-1.933-2.034-1.923-3.041c0.046-4.688,0.441-9.374,0.787-15.336c-0.073-0.288-0.822-1.856-0.753-3.39
		c0.048-1.061,1.221-2.073,1.892-3.106c0.728,0.991,2.056,1.965,2.089,2.979C35.195,455.37,35.206,461.694,35.019,468.011z
		 M46.807,466.622c-0.02,1.351-0.349,2.736-0.817,4.002c-0.095,0.258-2.032,0.271-2.125,0.021c-0.476-1.266-0.886-2.665-0.841-4.001
		c0.156-4.662,0.51-9.318,0.805-14.245c-0.197-0.487-0.767-1.25-0.749-1.998c0.03-1.352,0.296-2.732,0.746-4.005
		c0.085-0.246,2.04-0.258,2.136-0.003c0.474,1.253,0.812,2.633,0.833,3.974C46.883,455.783,46.886,461.204,46.807,466.622z
		 M54.17,467.029c-0.024,1.268-0.626,2.558-1.157,3.749c-0.101,0.224-1.484,0.271-1.666-0.005c-0.719-1.085-1.196-2.331-1.277-2.502
		c0-6.932-0.075-12.644,0.058-18.352c0.03-1.251,0.725-2.525,1.307-3.689c0.109-0.22,1.572-0.157,1.667,0.076
		c0.492,1.227,1.009,2.541,1.037,3.837C54.258,455.771,54.277,461.4,54.17,467.029z M61.296,466.445
		c-0.017,1.359-0.165,2.812-0.722,4.007c-0.188,0.405-2.472,0.483-2.661,0.121c-0.602-1.162-0.888-2.597-0.911-3.933
		c-0.096-5.459-0.108-10.918-0.01-16.377c0.024-1.299,0.45-2.663,1.01-3.846c0.154-0.322,1.891-0.421,2.172-0.055
		c0.775,1.007,1.165,2.309,1.149,2.273C61.325,455.524,61.365,460.986,61.296,466.445z M82.985,434.668
		c1.797,2.299,3.596,4.596,5.309,6.787c1.601-2.247,3.229-4.534,4.858-6.824c1.358,2.234,2.717,4.471,4.184,6.885
		c0.31-0.288,0.834-0.582,1.074-1.032c1.05-1.957,2.018-3.958,3.013-5.946c1.059,1.725,2.069,3.48,3.196,5.161
		c0.487,0.729,1.109,1.562,1.859,1.844c0.486,0.179,1.577-0.378,1.94-0.912c1.306-1.929,2.416-3.984,3.601-5.994
		c1.287,2.251,2.574,4.504,4.477,7.833c0.643-1.767,0.965-3.025,1.545-4.146c0.678-1.312,1.583-2.502,2.39-3.748
		c1.02,1.278,2.164,2.479,3.017,3.86c0.612,0.99,0.835,2.223,1.291,3.514c2.058-2.826,3.677-5.048,5.296-7.271
		c1.025,2.835,2.051,5.673,3.38,9.351H80.289C81.313,440.47,82.149,437.571,82.985,434.668z M137.832,470.702H75.508
		c0-3.417-0.364-7.04,0.171-10.522c0.231-1.494,2.333-2.699,3.585-4.037c1.064,1.331,2.66,2.518,3.063,4.024
		c0.608,2.258,0.377,4.742,0.502,7.128c0.734,0.145,1.468,0.288,2.202,0.43c0.446-1.79,0.672-3.676,1.391-5.348
		c0.932-2.164,2.259-4.158,3.415-6.225c1.236,2.016,2.688,3.936,3.639,6.077c0.752,1.696,0.886,3.669,1.295,5.516
		c0.825-0.162,1.649-0.323,2.472-0.486c0-2.162-0.378-4.417,0.119-6.458c0.413-1.69,1.86-3.123,2.849-4.67
		c1.196,1.586,2.5,3.102,3.533,4.787c0.368,0.601,0.156,1.611,0.084,2.42c-0.375,4.207,1.672,4.912,5.685,3.527
		c0-2.119-0.338-4.404,0.115-6.516c0.324-1.518,1.706-2.803,2.616-4.192c1.218,1.323,2.827,2.463,3.557,4.014
		c1.068,2.269,1.504,4.832,2.208,7.271c0.794-2.377,1.368-4.862,2.456-7.092c0.767-1.572,2.233-2.803,3.385-4.186
		c1.013,1.535,2.495,2.957,2.916,4.642c0.508,2.043,0.119,4.308,0.119,6.479c0.839,0.136,1.676,0.271,2.516,0.403
		c0.417-1.811,0.589-3.73,1.314-5.411c0.928-2.148,2.302-4.101,3.483-6.14c1.211,2.061,2.948,3.99,3.492,6.211
		C138.302,464.837,137.832,467.589,137.832,470.702z M139.404,435.287c0.926-1.601,1.486-4.135,2.83-4.66
		c25.931-10.08,51.952-19.925,77.953-29.82c0.211,0.398,0.422,0.795,0.634,1.193c-26.687,11.454-53.373,22.907-80.061,34.36
		C140.308,436.003,139.856,435.645,139.404,435.287z M142.398,437.55c26.987-11.604,53.976-23.209,80.962-34.814
		c0.162,0.334,0.325,0.667,0.489,1.002c-20.379,11.509-40.754,23.03-61.154,34.502c-0.844,0.476-1.928,0.764-2.891,0.745
		c-5.741-0.108-11.479-0.334-17.22-0.521C142.522,438.158,142.46,437.855,142.398,437.55z M156.274,467.058
		c-0.024,1.258-0.634,2.539-1.169,3.721c-0.102,0.226-1.474,0.267-1.656-0.007c-0.719-1.08-1.196-2.323-1.763-3.506
		c0.419-0.07,0.838-0.138,1.256-0.208c-0.256-5.777-0.636-11.554-0.668-17.333c-0.006-1.209,1.277-2.431,1.966-3.645
		c0.692,1.195,1.935,2.372,1.98,3.588C156.435,455.459,156.388,461.261,156.274,467.058z M163.175,465.778
		c-0.062,1.663-0.468,3.331-0.932,4.935c-0.054,0.186-2.132,0.108-2.17-0.073c-0.344-1.662-0.547-3.376-0.567-5.079
		c-0.007-0.581,0.295-1.161,0.375-1.24c-0.333-5.591-0.667-10.061-0.815-14.533c-0.037-1.106,0.262-2.468,0.934-3.267
		c0.388-0.462,2.339-0.411,2.689,0.068c0.631,0.86,0.8,2.22,0.794,3.365C163.463,455.231,163.375,460.508,163.175,465.778z
		 M170.59,467.208c0.007,1.24-1.261,2.488-1.941,3.732c-0.796-1.292-2.221-2.557-2.277-3.881c-0.241-5.589-0.127-11.194-0.018-16.79
		c0.025-1.311,0.416-2.666,0.933-3.873c0.119-0.278,1.881-0.341,2.148,0.03c0.749,1.044,1.11,2.358,1.625,3.567
		c-0.386,0.067-0.771,0.134-1.157,0.2C170.166,455.868,170.556,461.534,170.59,467.208z M182.19,467.27
		c-0.044,1.247-1.235,2.455-1.897,3.679c-0.629-1.257-1.757-2.498-1.798-3.777c-0.191-5.784-0.113-11.577-0.033-17.369
		c0.016-1.149,0.311-2.367,0.816-3.388c0.152-0.307,1.922-0.334,2.137,0.013c0.595,0.96,0.759,2.188,0.865,2.542
		C182.28,455.628,182.393,461.454,182.19,467.27z M189.512,467.032c-0.023,1.271-0.601,2.564-1.118,3.76
		c-0.095,0.222-1.533,0.251-1.659,0.008c-0.6-1.158-1.326-2.442-1.31-3.675c0.014-1.336,0.8-2.662,0.764-2.556
		c-0.32-5.921-0.72-10.378-0.697-14.832c0.005-1.225,1.272-2.443,1.961-3.664c0.7,1.187,1.96,2.351,2.004,3.563
		C189.673,455.428,189.624,461.233,189.512,467.032z M196.736,467.555c-0.046,1.157-1.451,2.262-2.238,3.392
		c-0.734-1.206-2.056-2.39-2.102-3.622c-0.211-5.863-0.195-11.742,0.034-17.602c0.049-1.239,1.327-2.434,2.037-3.647
		c0.793,1.12,2.211,2.213,2.257,3.362c0.125,3.088-0.337,6.203-0.606,9.843C196.342,461.795,196.85,464.686,196.736,467.555z
		 M191.237,438.289c6.253-5.733,12.257-11.113,18.113-16.653c4.208-3.979,8.225-8.163,12.323-12.261
		c-0.011,0-0.023-0.001-0.035-0.001c-5.802,4.87-11.661,9.694-17.402,14.658c-4.014,3.466-7.848,7.142-11.786,10.697
		c-2.95,2.665-5.414,6.315-10.343,2.508c-1.135-0.877-4.37,1.268-6.696,1.549c-2.565,0.306-5.196,0.069-8.893,0.069
		c1.452-1.197,2.076-1.884,2.843-2.318c15.939-9.046,31.875-18.1,47.894-27.006c1.139-0.632,2.902-0.138,4.383-0.157
		c0.072-0.06,0.144-0.12,0.215-0.18c-0.06,0.061-0.12,0.121-0.18,0.181c0.303,0.996,1.167,2.281,0.823,2.938
		c-4.072,7.768-8.273,15.47-12.594,23.1c-0.542,0.961-1.922,1.924-2.99,2.019C201.973,437.871,197.006,438.006,191.237,438.289z
		 M226.19,470.96c-6.168,2.832-10.882-0.696-15.72-2.979c-0.82-0.386-1.143-2.48-1.168-3.795
		c-0.104-5.816,0.185-11.646-0.049-17.459c-0.308-7.714,3.951-13.621,7.335-19.896c2.777-5.146,5.624-10.255,8.437-15.378
		c0.39,0.143,0.776,0.289,1.166,0.433V470.96z M246.222,471.678c-2.603-0.322-5.279-0.057-9.111-0.057v-68.697
		c14.556-3.23,15.703-2.329,15.78,12.015c0.087,16.561,0.034,33.127,0.562,49.676C253.637,470.407,251.767,472.361,246.222,471.678z
		 M262.785,400.452c8.582,3.936,17.163,7.87,25.745,11.807c-0.436,0.893-0.873,1.786-1.307,2.68
		c-8.46-4.314-16.92-8.627-25.379-12.942C262.158,401.48,262.47,400.967,262.785,400.452z M286.712,423.265
		c-7.313-5.463-14.628-10.929-21.942-16.392c0.213-0.382,0.425-0.764,0.636-1.148c7.052,3.65,14.219,7.1,21.055,11.117
		c1.32,0.775,1.336,3.772,1.952,5.745C287.847,422.812,287.279,423.038,286.712,423.265z M287.786,434.325
		c-0.713,0.372-1.426,0.743-2.14,1.11c-6.482-7.949-12.963-15.904-19.444-23.854c0.296-0.283,0.594-0.569,0.891-0.852
		c5.534,4.143,11.576,7.778,16.393,12.631C286.023,425.921,286.422,430.602,287.786,434.325z M271.437,470.682
		c-9.197,2.586-10.132,1.896-10.134-7.824c-0.001-14.311,0-28.619,0-42.928C269.643,435.815,275.145,452.33,271.437,470.682z
		 M284.082,442.791c-1.217,0.067-2.438,0.018-3.837,0.018c-1.623-2.966,0.997-8.842-5.715-6.483
		c-0.198,1.769-0.396,3.551-0.595,5.331c-0.402,0.128-0.805,0.256-1.206,0.383c-3.913-10.576-7.827-21.15-11.741-31.727
		c0.447-0.267,0.896-0.537,1.343-0.804c8.505,10.527,17.01,21.049,26.261,32.5C285.652,442.529,284.872,442.745,284.082,442.791z
		 M305.824,411.265c0.422-0.049,0.845-0.101,1.269-0.149c0.431,2.263,0.867,4.525,1.299,6.786c0.339,0.006,0.678,0.008,1.017,0.012
		c0.478-2.695,0.956-5.388,1.435-8.085c0.404,0.025,0.808,0.052,1.212,0.074c0.335,2.241,0.671,4.486,1.006,6.729
		c0.398,0.069,0.794,0.138,1.192,0.209c0.331-2.501,0.66-5.002,0.989-7.506c0.464-0.075,0.926-0.149,1.389-0.223
		c0.46,2.446,0.92,4.895,1.743,9.287c0.756-3.909,1.174-6.076,1.593-8.247c0.421-0.083,0.842-0.166,1.263-0.251
		c0.542,2.436,1.084,4.874,1.823,8.195c0.673-2.859,1.162-4.941,1.65-7.025c0.428,0.036,0.855,0.072,1.281,0.11v8.82h-20.16V411.265
		z M331.751,476.985c-0.479,0.05-0.957,0.101-1.435,0.149v-21.82h-7.879v21.71c-0.618,0.015-1.237,0.026-1.854,0.043v-21.636
		c-2.851-0.158-4.763-0.267-7.646-0.429v21.929c-0.672,0.012-1.342,0.023-2.012,0.036v-21.464c-2.756-0.204-4.478-0.334-7.378-0.551
		v22.241c-3.897-5.022-3.496-34.163-0.1-37.251v6.211c8.811-8.183,15.828-8.215,25.91-0.567c0.36-1.726,0.714-3.42,1.067-5.113
		c0.444,0.045,0.886,0.096,1.328,0.145V476.985z M372.639,471.264h-12.104v-15.463C371.998,458.232,373.754,460.408,372.639,471.264
		z M372.675,458.116c-11.354-2.928-13.03-4.78-11.965-13.67C373.668,448.767,373.668,448.767,372.675,458.116z M463.426,411.354
		c2.178-0.294,3.574-0.482,5.51-0.742c0.235,3.186,0.494,6.684,0.779,10.521h-6.289V411.354z M537.512,471.785H393.029
		c0.975-4.554,1.763-8.236,2.553-11.917c1.013-0.093,2.027-0.182,3.041-0.271c1.258,3.464,2.516,6.928,3.886,10.705
		c1.069-3.503,2.127-6.973,3.186-10.438c0.897-0.094,1.795-0.188,2.691-0.282c1.241,3.477,2.482,6.949,3.862,10.808
		c1.075-3.53,2.138-7.03,3.203-10.522c0.879-0.099,1.759-0.199,2.638-0.299c1.278,3.458,2.557,6.915,3.813,10.316
		c1.086-3.17,2.274-6.642,3.463-10.112c0.835-0.039,1.67-0.077,2.504-0.119c1.287,3.335,2.573,6.667,3.828,9.917
		c1.02-2.949,2.197-6.37,3.377-9.795c0.814-0.046,1.628-0.095,2.444-0.138c1.346,3.312,2.689,6.624,3.985,9.821
		c0.903-2.823,1.971-6.169,3.039-9.512c0.839-0.118,1.679-0.237,2.521-0.357c1.428,3.407,2.854,6.82,4.571,10.908
		c1.148,0.05,3.121,0.139,4.993,0.219c1.135-3.829,2.171-7.329,3.206-10.821c0.876-0.111,1.746-0.222,2.618-0.333
		c1.41,3.524,2.818,7.047,4.188,10.479c0.991-3.383,1.99-6.795,2.989-10.21c0.886-0.085,1.77-0.164,2.654-0.25
		c1.267,3.277,2.53,6.552,4.155,10.757c0.578,0.042,2.273,0.175,3.619,0.279c1.311-3.941,2.455-7.371,3.595-10.801
		c0.829-0.051,1.659-0.105,2.487-0.162c1.373,3.274,2.748,6.548,4.06,9.678c0.971-2.895,2.074-6.188,3.178-9.48
		c0.83-0.084,1.66-0.174,2.487-0.258c1.371,3.419,2.742,6.84,4.037,10.072c1.029-3.163,2.118-6.508,3.211-9.854
		c0.879-0.061,1.759-0.117,2.64-0.176c1.251,3.446,2.503,6.896,3.805,10.477c1.13-3.433,2.265-6.89,3.401-10.343
		c0.878-0.025,1.751-0.047,2.624-0.068c1.213,3.471,2.423,6.941,3.71,10.641c1.162-3.612,2.275-7.091,3.391-10.567
		c0.904-0.025,1.808-0.052,2.715-0.078c1.195,3.476,2.393,6.952,3.69,10.716c1.085-3.665,2.098-7.074,3.219-10.861
		C539.036,462.314,537.613,467.053,537.512,471.785z M697.831,387.986c0.603-0.11,1.212-0.222,1.816-0.331
		c0.44,1.789,1.494,3.683,1.218,5.356c-1.353,8.188-2.975,16.332-4.71,24.449c-0.37,1.722-1.612,3.257-3.421,4.471
		C690.317,409.71,692.697,398.604,697.831,387.986z M686.393,475.613h-6.981c0.137-8.799-1.713-17.454,3.083-26.641
		C688.122,457.85,686.058,466.583,686.393,475.613z M692.366,475.948c0.478-8.904,0.931-17.354,1.387-25.808
		c0.905-0.018,1.81-0.036,2.717-0.053c4.864,7.609,2.292,16.405,3.621,25.472C697.247,475.703,695.468,475.792,692.366,475.948z
		 M705.874,475.604c0.533-8.604,1.057-17.059,1.582-25.514c0.852-0.005,1.701-0.012,2.549-0.016
		c5.018,7.63,2.665,16.395,3.576,25.529H705.874z M716.592,445.742c-0.474,0.047-0.946,0.096-1.418,0.141
		c-1.796-3.731-3.595-7.465-5.717-11.88c-2.196,4.62-4.127,8.691-6.556,13.81c-2.182-4.79-3.986-8.755-6.203-13.625
		c-2.392,4.375-4.529,8.285-7.06,12.913c-2.235-4.526-4.117-8.335-6.195-12.541c-2.482,4.229-4.797,8.171-7.11,12.111
		c-0.479-0.266-0.956-0.535-1.436-0.802c2.647-5.029,5.295-10.059,8.473-16.096c2.308,4.625,4.161,8.342,6.346,12.727
		c2.327-4.342,4.437-8.281,6.991-13.061c2.299,4.867,4.165,8.821,6.272,13.289c2.223-4.735,4.179-8.903,6.517-13.885
		c2.103,4.496,3.879,8.29,5.97,12.758c1.361-4.257,2.479-7.751,3.596-11.244c0.552,0.17,1.106,0.341,1.658,0.509
		C719.343,435.826,717.967,440.781,716.592,445.742z M723.499,398.706c-1.55-0.114-2.719-0.201-3.886-0.288
		c2.953,2.235,4.052,4.775,3.069,8.737c-1.115,4.506-1.126,9.288-1.657,14.324h-22.943c-1.048-10.096,1.175-19.623,5.221-28.801
		c0.354-0.8,2.373-0.871,3.615-1.278c-0.265-1.546-1.3-3.611-0.667-4.55c3.719-5.503,7.825-10.743,11.957-16.283
		C729.856,378.991,723.395,389.221,723.499,398.706z M717.348,366.314c-0.002,0.057-0.012,0.104-0.012,0.163
		c-0.083,0.015-0.175,0.021-0.261,0.033c-0.192,1.422-0.045,3.099-0.792,4.115c-3.826,5.21-7.806,10.321-12.025,15.214
		c-0.905,1.051-3.029,1.051-4.591,1.533c-0.483-0.777-0.962-1.558-1.444-2.335c4.802-5.919,9.496-11.928,14.511-17.662
		c0.769-0.88,2.795-0.663,4.342-0.865c0.012-0.086,0.02-0.174,0.034-0.258C717.188,366.279,717.268,366.291,717.348,366.314
		c0.145-6.666,6.802-6.18,10.161-9.772C728.668,362.95,722.961,368,717.348,366.314z M810.503,457.207
		c-0.985-0.105-1.97-0.213-2.953-0.322c-0.158-1.793-0.917-3.807-0.367-5.35c2.439-6.849,5.461-13.493,7.84-20.357
		c1.102-3.178,2.153-4.683,6.444-1.659C817.879,438.582,814.191,447.895,810.503,457.207z M810.727,380.908
		c0.487,0.796-0.824,2.686-1.444,4.157c0.024,0.021,0.05,0.043,0.074,0.065c-0.012,0.063-0.035,0.132-0.053,0.198
		c1.567,0.29,3.996,0.135,4.438,0.997c6.467,12.625,9.054,25.946,6.594,41.747c-2.044-2.2-4.106-3.438-4.005-4.46
		c1.269-13.023-2.065-25.055-7.266-36.76c-0.176-0.396,0.099-0.988,0.239-1.524c-0.04-0.008-0.086-0.013-0.125-0.021
		c0.029-0.078,0.07-0.163,0.104-0.243c-1.263-1.139-2.562-2.246-3.788-3.43c-5.971-5.782-11.983-11.526-17.836-17.429
		c-1.328-1.343-2.064-3.273-2.14-5.603C796.85,363.106,804.711,371.066,810.727,380.908z M755.315,350.059
		c10.107-0.222,19.81,1.646,28.788,6.467c0.213,0.73,0.426,1.461,0.638,2.193c-1.776,0.426-3.654,1.452-5.314,1.175
		c-8.155-1.349-16.28-2.946-24.359-4.706c-1.586-0.346-2.931-1.785-4.386-2.721C752.226,351.627,753.753,350.093,755.315,350.059z
		 M750.234,350.808c-3.518,8.385-11.574,4.695-15.996,9.041C733.284,353.38,737.798,350.908,750.234,350.808z M744.304,430.027
		c-1.376-0.353-3.28-1.926-3.447-3.177c-0.659-5.006-0.738-10.091-1.062-15.687c1.873,0.396,3.502,0.741,5.134,1.084
		c-5.607-2.458-5.929-7.514-5.997-12.571c-0.013-0.72,1.205-1.461,1.854-2.19c-1.269-4.853-2.833-9.654-3.716-14.574
		c-0.745-4.167,0.095-8.197-1.86-12.668c-3.211-7.339-1.431-9.195,6.683-11.308c2.311-0.602,4.699-0.903,7.743-1.466
		c0.649,6.854,1.296,13.077,1.812,19.311c0.897,10.798,1.768,21.601,2.452,32.417c0.05,0.829-1.442,1.76-2.213,2.644
		c-0.129,6.217-3.716-0.521-5.01,1.339c1.673,1.371,3.347,2.743,5.544,4.547c-1.343,3.315-2.575,6.926-4.298,10.286
		C747.369,429.091,745.314,430.283,744.304,430.027z M751.634,430.822c0-0.825-0.246-1.676,0.039-1.935
		c3.39-3.084,7.382-2.396,8.421,1.63c1.881,7.267,3.441,14.618,5.247,22.41h-5.531c-1.14-7.17-2.222-13.976-3.287-20.694
		C754.707,431.709,753.194,431.272,751.634,430.822z M759.686,477.048v-18.887c4.89-1.774,7.529-0.521,8.24,4.977
		c0.564,4.351,1.97,8.596,3.25,13.91H759.686z M761.18,423.943c-0.149-0.356,1.106-1.292,1.704-1.957
		c-0.497-0.939-0.996-1.876-1.49-2.815c0.85-0.167,1.701-0.339,2.556-0.513c-0.715-1.532-1.428-3.068-2.142-4.601
		c-1.284-0.321-2.566-0.64-3.846-0.956c-0.812-0.382-2.306-0.703-2.343-1.151c-1.542-18.079-2.951-36.169-4.421-54.831
		c11.292-0.865,20.962,1.189,30.519,6.144c-7.072,14.309-13.969,28.185-20.759,42.108c-0.971,1.981-1.456,4.195-2.167,6.301
		c7.014-13.755,14.023-27.512,21.031-41.27c1.013-1.985,2.013-3.978,3.375-6.671c9.679,6.438,19.148,12.438,22.288,24.44
		c1.131,1.15,2.671,2.104,3.324,3.479c4.518,9.49,6.071,19.541,5.786,30.03c-0.114,4.209-2.503,3.819-5.175,3.727
		c4.151,1.305,4.774,4.089,3.301,7.792c-2.599,6.532-5.175,13.074-7.889,19.937c-2.474-1.013-3.907-1.604-5.34-2.193
		c0.898,1.291,1.796,2.582,3.409,4.896c-6.687,5.733-13.364,11.465-20.756,17.808C774.72,456.131,767.887,440.061,761.18,423.943z
		 M782.86,476.941c0.172-0.638,0.343-1.271,0.519-1.905c7.09-6.034,14.176-12.066,22.463-19.114
		c0.149,1.956,1.073,4.506,0.285,5.258c-5.729,5.457-11.694,10.69-17.873,15.634C787.136,477.708,784.69,476.941,782.86,476.941z"/>
	<path fill-rule="evenodd" clip-rule="evenodd" fill="#5E5E5E" d="M427.077,359.896c-1.952-0.351-3.917-0.704-5.887-1.069
		c1.217,2.523,2.073,4.304,3.187,6.615C425.398,363.347,426.249,361.6,427.077,359.896z"/>
	<path fill-rule="evenodd" clip-rule="evenodd" fill="#5E5E5E" d="M431.004,338.222c1.858,1.118,3.671,2.316,5.45,3.617v-3.773
		c-0.124,0.005-0.238,0.022-0.364,0.023C434.387,338.1,432.693,338.15,431.004,338.222z"/>
	<path fill-rule="evenodd" clip-rule="evenodd" fill="#5E5E5E" d="M429.377,360.298c0.143,1.923,0.289,3.889,0.461,6.203h-17.623
		v-6.744c0.513-0.243,1.027-0.482,1.542-0.723c1.069,1.827,2.139,3.658,3.574,6.115c0.865-1.865,1.687-3.642,3.003-6.482
		c-5.178-0.971-10.378-2.047-15.462-3.437c0.003,20.861,0.018,41.612,0.069,62.352c0.002,1.2,0.985,3.429,1.542,3.44
		c5.674,0.102,5.18,4.674,5.941,7.614c6.702-1.459,6.904-7.045,7.733-12.27c0.192-1.212,0.199-2.504,0.651-3.611
		c0.482-1.183,1.393-2.191,2.115-3.275c0.938,1.1,2.429,2.073,2.715,3.322c1.009,4.414,1.604,8.925,2.367,13.462
		c2.668-2.839,5.207-5.538,8.448-8.985V359.28C434.365,360.381,431.894,360.675,429.377,360.298z M412.375,385.854v-6.837
		c0.611-0.21,1.225-0.423,1.837-0.634c0.94,1.761,1.881,3.521,2.909,5.444c1.386-1.877,2.552-3.459,3.72-5.044
		c1.165,1.588,2.331,3.171,3.726,5.074c1.065-1.936,2.035-3.695,3.006-5.457c0.6,0.142,1.2,0.282,1.8,0.423
		c0.13,2.22,0.259,4.436,0.409,7.03H412.375z"/>
	<path fill-rule="evenodd" clip-rule="evenodd" fill="#5E5E5E" d="M537.355,387.796c2.058,17.539,0.77,37.043-3.072,43.781
		c-2.341-4.017-0.069-11.787-9.093-9.873c-4.589,0.972-6.458,2.579-6.287,6.938c-4.863-0.83-6.645-4.249-7.128-8.255
		c-1.281-10.639-2.259-21.314-3.423-32.591C518.759,387.796,527.841,387.796,537.355,387.796z"/>
	<path fill-rule="evenodd" clip-rule="evenodd" fill="#5E5E5E" d="M578.146,249.765c0,3.308-0.07,6.615,0.012,9.923
		c0.35,14.161,0.735,28.32,1.132,42.479c0.058,2.003,0.249,4.007,0.402,6.416c-2.037,0.261-3.747,0.479-6.715,0.86
		c4.519-20.136,2.375-39.979,1.816-59.763C575.911,249.708,577.027,249.736,578.146,249.765z"/>
	<path fill-rule="evenodd" clip-rule="evenodd" fill="#5E5E5E" d="M567.975,328.029c-0.21-2.365-0.422-4.729-0.654-7.342
		c6.191,0,11.867,0,19.854,0c-2.197,1.986-3.224,3.716-4.417,3.841c-3.638,0.378-7.379-0.161-11.001,0.298
		c-1.369,0.173-2.519,2.091-3.769,3.214C567.987,328.041,567.975,328.029,567.975,328.029z"/>
	<path fill-rule="evenodd" clip-rule="evenodd" fill="#5E5E5E" d="M622.773,321.354c6.879,0,12.404,0,18.043,0
		C638.8,325.179,628.213,325.686,622.773,321.354z"/>
	<path fill-rule="evenodd" clip-rule="evenodd" fill="#5E5E5E" d="M567.556,312.093c5.96,0,11.919,0,17.878,0
		c0.184,0.562,0.369,1.123,0.554,1.685c-1.421,0.479-2.898,1.486-4.255,1.34c-4.808-0.516-10.243,1.633-14.559-1.257
		C567.301,313.271,567.428,312.683,567.556,312.093z"/>
	<path fill-rule="evenodd" clip-rule="evenodd" fill="#5E5E5E" d="M640.273,328.521c-5.214,0-10.426,0-15.636,0
		c-0.008-0.312-0.015-0.623-0.024-0.936c5.246,0,10.494,0,15.74,0C640.325,327.898,640.3,328.21,640.273,328.521z"/>
</g>
<path fill="#393C42" d="M840.037,499.119c-4.076-2.09-8-2.505-12.237-0.355c-0.596-1.469,1.835-4.758-2.217-3.649l-0.049,0.01
	c0.309,0.039,0.321,0.128,0.029,0.223c-0.014,0.004-0.117-0.265-0.18-0.406c0.058,0.051,0.114,0.101,0.172,0.149
	c0.045-0.033,0.077-0.07,0.119-0.104c0.139-0.114,0.274-0.229,0.384-0.348c0.046-0.051,0.075-0.104,0.116-0.155
	c0.089-0.111,0.18-0.222,0.246-0.336c0.031-0.055,0.047-0.111,0.073-0.166c0.056-0.116,0.114-0.231,0.15-0.35
	c0.015-0.049,0.017-0.1,0.027-0.149c0.029-0.128,0.061-0.255,0.069-0.385c0.003-0.037-0.004-0.074-0.003-0.111
	c0.005-0.145,0.005-0.289-0.013-0.437c-0.002-0.019-0.009-0.037-0.012-0.057c-0.074-0.532-0.279-1.075-0.568-1.61
	c-0.847-1.564-2.088-1.34-3.405-0.452c-0.629,0.424-1.091-0.258-1.61-0.521c-0.879-0.444-1.655-0.253-2.289,0.492
	c-0.58,0.683-0.338,1.281,0.077,1.98c0.42,0.708,0.573,1.567,0.941,2.312c0.301,0.611,1.179,1.247,0.308,1.838
	c-1.522,1.034-0.828-0.85-1.369-1.195c-2.419-1.546-4.072,0.405-5.423,1.607c-1.22,1.087-1.03,2.78,1.08,3.616
	c1.025,0.405,1.949,1.332,2.647,2.233c0.807,1.044,3.071,1.605,2.05,3.313c-0.819,1.37-3.07,0.958-4.055,0.417
	c-1.333-0.734-0.898-2.817-1.163-4.333c-0.078-0.446-0.012-0.917-0.012-1.425c-3.629,1.075-6.47-0.101-9.192-3.695
	c-2.591-3.42-3.277-3.378-5.084,0.348c-0.229,0.471-0.548,0.781-0.955,1.057c0.214-0.029,0.429-0.058,0.638-0.096
	c1.267-0.231,2.234,0.107,2.66,1.294c0.424,1.18-0.503,1.746-1.41,2.101c-0.837,0.327-1.762,0.919-2.475-0.337
	c-0.594-1.048-0.962-2.033,0.305-2.779c0.101-0.06,0.191-0.121,0.282-0.183c-0.9,0.125-1.781,0.275-2.101,1.318
	c-1.299,4.25-4.548,3.761-7.854,3.426c-14.79-1.498-29.559-3.189-44.246-5.497c-6.121-0.962-12.095-2.868-18.374-2.808
	c-0.353,0.003-0.708-0.093-1.062-0.144c0.946-6.047-5.076-3.422-7.278-5.718c-1.763-1.839-4.314-2.205-7.053-0.57
	c-1.312,0.782-3.516,0.069-5.315,0.033c-0.978-1.283-2.078-2.099-3.525-0.662c-0.606,0.601-1.109,1.482-0.5,2.252
	c1.163,1.466,2.062-0.206,3.09-0.433c0.297,0.906,0.595,1.812,0.89,2.719c0.304-0.175,0.605-0.397,0.902-0.682
	c0.891-0.852,0.971,0.646,1.309,1.313c0.065-0.083,0.129-0.155,0.196-0.251c0.02-0.026,0.354,0.133,0.503,0.254
	c0.05,0.04-0.022,0.23-0.038,0.352c-0.207-0.08-0.506-0.101-0.604-0.251c-0.021-0.031-0.039-0.066-0.058-0.104
	c-0.924,1.177-1.657,1.062-2.192-0.576c-0.006-0.019-0.012-0.037-0.019-0.056c-2.084,1.2-4.299,0.083-6.4,0.228
	c-6.71,0.463-13.439,0.669-20.161,0.96c-2.012,0.087-3.542-0.312-3.88-2.812c-0.312-2.312-2.394-2.863-4.312-3.329
	c-0.94-0.228-1.976-0.123-2.762-1.001c0.484-1.375,3.406-1.788,1.873-3.982c-1.114-1.596-2.796-1.193-4.335-0.642
	c-0.42,0.15-1.081,0.681-1.035,0.922c0.89,4.581-6.703,4.91-4.98,9.991c0.249,0.732-1.219,0.973-2.059,1.111
	c-3.714,0.615-7.434,1.193-11.141,1.847c-0.934,0.165-1.393-0.097-1.51-1.011c-0.18-1.414-1.183-2.294-2.755-3.364
	c3.703-0.271,4.534-1.13,1.984-3.73c-1.348-1.374-1.325-3.862-3.281-5.072c-1.487-0.922-2.682-1.581-3.729,0.587
	c-0.387,0.801-1.314,1.423-2.122,1.922c-2.066,1.275-2.863,2.621-0.588,4.423c0.188,0.148,0.609,0.269,0.597,0.358
	c-0.665,4.943,2.239,4.245,5.541,3.121c-2.11,2.854-3.991,4.947-7.72,5.255c-4.09,0.337-8.034-0.607-12.069-0.46
	c-0.362,0.014-0.711-0.046-1.038-0.167c-0.98-0.362-1.766-1.278-2.146-2.444c-0.491-0.781-2.061-0.7-2.309-1.746
	c-0.082-0.349-0.018-0.822,0.282-1.495c0.686-1.535-1.062-1.611-2.38-1.132c-3.505,1.273-6.956-1.366-7.196-5.5
	c1.199-0.284,1.709,0.753,2.353,1.35c0.808,0.748-0.364,2.994,1.443,2.782c1.559-0.183,3.176-1.208,3.435-3.224
	c1.619-4.066-0.286-5.945-3.909-7.662c-2.16-1.024-4.065-3.343-3.96-6.321c0.091-2.568-1.179-2.802-3.235-2.095
	c-1.876,0.645-3.444,1.045-5.416-0.713c-2.358-2.104-4.731-0.172-5.844,2.056c-0.66,1.32-1.42,1.885-2.375,1.463
	c-3.095-1.365-4.341,0.896-5.917,2.654c-0.729,0.814-1.604,1.517-2.229,2.399c-0.606,0.855-3.438,1.064-0.895,3.055
	c0.936,0.731-0.449,0.649-0.793,0.843c-1.075,0.606-1.278,1.098,0.015,1.686c0.406,0.184,0.716,0.579,1.069,0.877
	c-1.887,1.908-2.018,3.521,0.78,4.642c-0.143,0.327-0.197,0.831-0.442,0.954c-2.184,1.094-4.556,0.693-6.816,0.526
	c-1.752-0.129-2.182-1.956-2.192-3.349c-0.015-1.969-0.531-2.498-2.576-2.305c-3.165,0.299-4.495-2.669-6.704-4.362
	c2.298,0.135,4.36,1.364,5.814-2.076c0.727-1.724,4.694-1.479,6.552-3.622c0.566-0.653,1.161-1.274,0.373-1.515
	c-4.225-1.289-5.228-5.762-8.325-8.119c-1.073-0.816-2.055-1.98-3.293-0.175c-0.664,0.967-1.48,0.688-2.153-0.034
	c-2.438-2.616-5.025-1.939-8.25-1.437c-2.329,0.362-4.744,0.491-7.066,1.256c-0.899,0.297-0.988-0.469-1.403-1.12
	c-1.902-2.981-5.56-4.099-8.888-2.788c-1.367,0.538-2.388,0.549-3.742-0.235c-3.516-2.038-7.126-1.31-9.77,1.891
	c-1.354,1.638-2.595,2.302-4.115,0.421c-1.645-2.029-1.915,0.667-3.515,0.946c0-4.76-0.027-9.367,0.019-13.974
	c0.012-1.179,0.748-2.062,1.688-2.717c5.519-3.849,10.282-8.702,16.074-12.17c1.984-1.188,1.364-2.228-0.071-2.854
	c-2.19-0.957-4.274-2.451-6.92-2.024c-0.956,0.155-1.96,0.014-2.94,0.024c-7.956,0.079-8.894-1.085-7.491-9.074
	c0.19-1.087,0.59-1.763,1.592-2.217c0.699-0.318,1.375-1.241,0.455-1.635c-3.367-1.437-1.208-3.859-0.805-5.517
	c0.467-1.924,2.713-0.973,4.21-1.087c1.589-0.121,3.19-0.064,4.784-0.143c5.727-0.279,5.878-0.26,6.933-5.74
	c0.567-2.949,2.885-2.861,4.736-3.07c3.403-0.384,6.773-0.835,10.155-1.421c4.739-0.82,3.164-4.475,3.6-7.166
	c0.463-2.862-1.829-2.369-3.599-2.768c-8.753-1.972-17.792-1.19-26.569-2.924c-3.2-0.632-4.955-1.666-4.222-5.475
	c0.874-4.541-0.526-9.292,0.879-13.857c0.264-0.857-0.104-1.64-0.663-2.377c-2.602-3.435-2.2-7.081-0.146-10.464
	c1.397-2.302,1.587-4.347,0.122-6.457c-1.051-1.516-1.014-3.005-1.069-4.779c-0.105-3.343-3.515-4.166-5.854-5.028
	c-7.117-2.627-14.689-3.383-22.146-4.672c-12.231-2.116-24.545-2.735-36.888-3.378c-1.972-0.103-2.845,0.409-3.497,2.249
	c-0.979,2.761-2.992,4.267-6.121,4.256c-3.64-0.012-7.021,0.854-9.712,3.598c-0.847,0.862-1.889,1.567-2.93,2.199
	c-3.194,1.939-5.386,0.821-5.671-2.859c-0.08-1.032-0.21-2.143-1.409-2.268c-2.852-0.298-2.75-2.235-2.531-4.25
	c0.248-2.288-0.456-3.345-3.02-3.282c-14.82,0.357-29.641,0.683-44.431,1.749c-10.125,0.73-20.316,1.35-30.182,3.739
	c-4.232,1.025-9.199,0.512-12.6,4.398c-2.94,3.359-4.039,9.731-2.127,13.848c0.298,0.643,0.417,1.427,0.411,2.143
	c-0.076,7.973-0.252,15.945-0.257,23.917c-0.001,2.176-0.802,2.748-2.845,2.502c-6.128-0.737-12.258,0.169-18.383,0.089
	c-3.276-0.043-4.49,1.227-4.154,4.347c0.287,2.665,0.694,5.07-3.578,4.831c-2.68-0.15-2.81,2.481-2.607,4.671
	c0.182,1.958-0.407,3.859,2.735,4.625c7.766,1.893,15.726,2.26,23.526,3.721c1.395,0.262,4.016-0.253,3.969,1.674
	c-0.061,2.444,0.844,5.278-1.044,7.428c-1.259,1.435-2.841,1.879,0.061,3.839c2.209,1.492,0.719,5.25,0.554,7.968
	c-0.107,1.763-1.961,0.971-3.039,1.131c-3.003,0.448-5.893,1.538-8.993,1.47c-1.041-0.024-1.555,0.642-1.008,1.735
	c0.247,0.225,0.493,0.448,0.739,0.673l0.038,0.149c2.537,1.213,5.404-0.993,8.261,0.765c-2.415,1.014-4.846-0.443-6.817,1.019
	c0,0-0.12,0.167-0.119,0.167c-0.001,0-0.122,0.116-0.182,0.175l-0.034,0.032l-0.276-0.137c-2.005,0.183-5.083-1.226-5.771,0.555
	c-0.833,2.155,2.598,2.483,4.01,3.776c3.417,3.126,7.151,5.904,10.697,8.893c2.441,2.059,3.786,11.16,2.082,13.783
	c-0.458,0.705-1.082,1.463-2.04,1.321c-1.147-0.171-0.985-1.149-1.032-2.018c-0.158-2.938-1.912-5.792-0.352-8.838
	c0.281-0.547-0.189-1.186-0.972-1.189c-1.153-0.005-1.835,0.75-2.136,1.705c-0.726,2.305-1.321,4.648-1.99,7.051
	c-0.398-0.053-0.755-0.177-1.085-0.347c-0.991-0.511-1.741-1.44-2.642-2.137c-1.147,1.224-2.109,1.624-2.967,1.559
	c-1.029-0.077-1.909-0.823-2.777-1.618c-0.724-0.663-1.439-1.359-2.229-1.73c-1.257,0.066-2.516,0.134-3.773,0.2
	c-1.008,0.045-1.977,0.191-2.85,0.593c-0.523,0.24-1.012,0.573-1.454,1.031c-4.137-1.89-7.696,0.379-11.529,1.483
	c-0.627-0.789,0.322-3.018-1.472-2.797c-1.749,0.216-3.557,1.076-4.77,2.623c-0.438,0.559-0.813,1.167-1.215,1.753
	c-1.349,1.689-3.166,2.327-5.08,2.749c-0.638,0.141-1.287,0.257-1.932,0.38c-4.357,0.126-8.741,1.331-13.054-0.327
	c-0.341-0.131-0.954-0.132-1.016-0.328c-1.281-4.06-5.532-3.875-8.163-5.911c-2.162-1.672-3.361-1.267-4.337,0.59
	c-0.992,1.887-1.773,1.933-3.686,1.123c-2.937-1.243-5.347,1.574-8.234,1.863c-2.087,0.208-4.149,1.23-6.096,2.157
	c-3.765,1.792-8.038,0.801-11.891,2.509c-2.368,1.05-4.757,1.389-4.28,4.736c0.171,1.2-0.189,2.252-1.246,2.85
	c-0.45,0.255-0.71,0.487-0.835,0.704c-0.062,0.108-0.091,0.213-0.093,0.314c-0.009,0.508,0.654,0.941,1.124,1.409
	c0.586,0.924,0.78,1.669,0.716,2.287c-0.127,1.238-1.284,1.974-2.387,2.634c-0.552,0.33-1.09,0.642-1.479,0.987
	c-1.611,1.432-1.544-1.277-2.339-2.031l-0.102-0.063c-1.096-0.574-1.85-0.969-2.383-1.024c-0.426-0.045-0.711,0.128-0.918,0.599
	c-0.052,0.117-0.098,0.254-0.141,0.41c-0.085,0.312-0.155,0.705-0.217,1.188c-0.123,0.965-0.215,2.289-0.336,4.055
	c-1.166,0.225-1.486-1.623-2.731-1.149c-1.709,1.312-0.486,4.359-3.405,5.268c0.632-1.647,0.89-3.137-0.975-4.009
	c-0.619-0.29-1.319-0.868-1.113-1.709c0.259-1.058,1.224-0.34,1.814-0.568c1.082-0.419,2.113-0.967,3.165-1.461
	c0.932-2.115,1.868-4.188,4.536-4.666c0.689-0.123,0.699-0.889,0.645-1.515c-0.386-0.082-0.771-0.164-1.157-0.245
	c-1.288-0.454-1.536-1.021-0.192-1.763c0.21-0.038,0.415-0.1,0.611-0.186c0.765-0.619,2.297-0.774,1.441-2.377
	c-2.521-0.828-5.078,0.706-7.561-0.014c-0.464-0.96,0.468-1.397,0.569-2.09c0.182-1.245,1.644-2.888,0.345-3.622
	c-1.623-0.918-1.835,1.376-2.712,2.227c-0.468,0.454-0.726,1.453-1.66,1.021c-0.67-0.31-0.606-0.966-0.341-1.583
	c0.271-0.631,0.187-1.195-0.398-1.61c-1.557-1.104-3.748-0.679-5.146-1.737c-2.153-1.632-3.303-0.017-4.688,0.912
	c-3.618,2.424-5.029,2.1-7.153-1.934c-0.38-0.723-0.757-1.438-1.554-1.203c-2.298,0.676-4.523,1.598-7.002,0.797
	c-0.49-0.158-1.094,0.707-0.926,0.826c3.163,2.247-0.707,3.998-0.477,6.166c0.252,2.381-2.359,1.952-3.862,1.738
	c-2.714-0.387-3.504,1.012-3.922,2.677c0.309,0.042,0.631,0.075,0.982,0.09c0.713,0.029,1.186,0.192,1.339,0.749
	c0.03,0.111,0.045,0.212,0.05,0.307c0.002,0.033-0.004,0.061-0.005,0.092c-0.002,0.058-0.005,0.114-0.017,0.165
	c-0.008,0.034-0.021,0.063-0.033,0.095c-0.015,0.041-0.03,0.082-0.052,0.119c-0.018,0.031-0.04,0.059-0.062,0.087
	c-0.024,0.03-0.048,0.061-0.076,0.089c-0.027,0.026-0.057,0.052-0.088,0.075c-0.03,0.023-0.061,0.046-0.094,0.067
	c-0.035,0.022-0.071,0.044-0.11,0.064c-0.035,0.018-0.071,0.035-0.108,0.052c-0.04,0.018-0.08,0.035-0.123,0.052
	c-0.045,0.017-0.091,0.032-0.138,0.047c-0.035,0.011-0.068,0.022-0.104,0.033c-0.012,0.003-0.022,0.008-0.034,0.011
	c0.049,0.01,0.099,0.02,0.148,0.029c0.068,0.014,0.135,0.027,0.203,0.04c0.083,0.017,0.167,0.032,0.25,0.048
	c0.072,0.014,0.144,0.026,0.215,0.039c0.081,0.015,0.161,0.028,0.242,0.041c0.07,0.012,0.14,0.023,0.209,0.034
	c0.081,0.012,0.161,0.022,0.241,0.033c0.068,0.009,0.137,0.019,0.205,0.026c0.079,0.009,0.157,0.016,0.235,0.022
	c0.068,0.006,0.137,0.013,0.205,0.018c0.077,0.005,0.152,0.007,0.229,0.01c0.068,0.002,0.137,0.005,0.204,0.006
	c0.075,0,0.148-0.003,0.223-0.006c0.067-0.002,0.135-0.003,0.201-0.008c0.073-0.005,0.145-0.015,0.217-0.023
	c0.066-0.008,0.133-0.014,0.198-0.023c0.07-0.012,0.139-0.028,0.208-0.043c0.065-0.014,0.131-0.025,0.196-0.043
	c0.069-0.019,0.136-0.043,0.203-0.065c0.063-0.021,0.126-0.039,0.188-0.062c0.068-0.027,0.133-0.061,0.2-0.092
	c0.06-0.027,0.121-0.053,0.18-0.085c0.066-0.035,0.129-0.079,0.194-0.12c0.057-0.035,0.115-0.067,0.17-0.107
	c0.064-0.046,0.125-0.101,0.188-0.152c0.054-0.045,0.109-0.085,0.162-0.134c0.062-0.058,0.122-0.125,0.183-0.189
	c0.05-0.053,0.101-0.1,0.149-0.156c0.067-0.079,0.131-0.169,0.196-0.257c0.039-0.053,0.08-0.1,0.119-0.155
	c0.102-0.149,0.2-0.31,0.295-0.483c0.298-0.543,1.018-0.826,1.581-0.332c0.32,0.281,0.679,1.04,0.535,1.253
	c-2.204,3.239,0.763,2.351,2.292,2.529c-2.393,3.028-2.393,3.028,1.41,4.399c-1.907,0.335-2.726-1.621-4.362-0.832
	c-1.67,0.805-4.924,0.241-1.72,3.427c0.655,0.651,0.851,1.561-0.143,2.541c-1.265,1.249-4.908,0.917-3.19,4.431
	c0.146,0.297-1.019,0.433-1.591,0.387c-0.883-0.072-0.93-0.69-0.541-1.286c1.554-2.38,0.767-3.33-1.889-3.21
	c-0.652,0.03-1.242-0.099-1.339-0.879c-0.081-0.651,0.414-0.796,0.913-0.863c1.222-0.165,1.157-1.333,1.702-2.012
	c2.162-2.69,1.182-5.119-0.13-7.637c0.003-0.003,0.067-0.087,0.067-0.087c-0.688,0.51-1.72,0.452-1.553-0.351
	c0.124-0.593,0.226-1.219,0.375-1.812c-3.311-0.452-4.128-2.498-2.342-5.906c0.729-1.393,0.671-2.531-1.091-2.569
	c-5.358-0.118-10.459-2.789-15.942-1.577c-0.2,0.045-0.587-0.04-0.643-0.17c-1.689-3.913-6.527-2.542-8.978-5.349
	c-0.727-0.833-2.458-2.262-3.529,0.563c-0.636,1.678-2.572,0.954-3.795,0.028c-1.662-1.257-2.874-2.599-4.463,0.396
	c-0.875,1.647-3.806,1.523-5.376,1.578c-3.871,0.134-6.799,2.449-9.992,3.691c-5.756,2.239-10.794-0.451-16.135-0.54
	c-0.924-0.015-1.063-1.682-1.18-2.811c-0.161-1.551-0.668-3.432-2.105-3.854c-1.693-0.499-1.155,2.145-2.729,2.806
	c-1.443-3.333-3.029-3.883-5.291-0.331c-1.151,1.809-2.909,0.168-3.359-0.987c-1.036-2.657-2.011-2.259-3.594-0.551
	c-1.059,1.143-2.842,1.186-3.992,2.434c-0.595,0.646-2.026,0.513-2.638-0.396c-2.698-4.009-4.163-1.358-5.7,0.982
	c-0.243,0.369-0.373,0.812-0.56,1.231c-1.597-0.303-1.542-1.81-2.225-2.735c-0.783-1.062-1.487-2.545-2.943-2.436
	c-1.293,0.096-1.914,1.495-2.275,2.656c-0.618,1.985-1.081,3.28-3.822,2.224c-2.712-1.045-4.47,0.9-5.09,3.483
	c-0.474,1.972-1.354,1.89-2.81,1.104c-2.543-1.372-5.638-1.775-7.4-4.502c-0.695-1.075-2.993-1.231-3.032-1.359
	c-0.879-2.859-2.116-4.813-5.553-3.367c-1.87-4.72-5.373-6.655-10.4-6.808c-1.122-0.034-1.705-3.573-4.094-1.361
	c0,48.595,0.03,97.19-0.072,145.784c-0.006,2.969,0.433,3.832,3.698,3.831c279.421-0.102,558.842-0.094,838.264-0.094
	c0.03-31.383,0.035-62.766,0.146-94.148C842.779,499.597,841.441,499.84,840.037,499.119z M148.372,494.119
	c-1.677,0.132-2.997,1.567-5.136,1.289c0.681-3.516,4.185-0.721,5.405-2.723c0.138,0.192,0.322,0.367,0.407,0.581
	C149.305,493.913,148.951,494.073,148.372,494.119z M158.343,498.105c1.922,2.264,0.809,4.557,0.045,7.141
	c-0.65-0.496-0.874-1.09-0.928-1.713c-0.01-0.125-0.014-0.251-0.013-0.377c0.004-0.634,0.129-1.284,0.117-1.886
	c-0.012-0.602-0.16-1.154-0.7-1.592c-0.635-0.277-1.767-0.125-1.923-0.836c-0.022-0.102-0.025-0.221-0.003-0.361
	c0.124-0.803,1.278-1.951,2.096-1.621c1.859,0.748,3.248-0.335,4.956-1.008C161.716,498.704,159.491,497.421,158.343,498.105z
	 M199.078,496.708c-0.812,2.079-2.733,0.908-4.185,1.134c1.504-0.414,1.922-2.84,3.91-2.122
	C198.998,495.791,199.182,496.44,199.078,496.708z M202.062,491.013c-1.143-0.088-1.356-1.294-2.156-1.765
	c-0.812-0.479-1.976-0.758-1.291-2.105c0.751-1.479,2.11-0.987,3.214-0.744c2.313,0.513,0.301,1.427,0.133,2.194
	C201.788,489.385,202.737,490.152,202.062,491.013z M823.598,507.301c-1.126,0.161-1.636-0.973-1.414-1.678
	c0.649-2.072,3.071-1.333,4.444-2.422c0.441-0.35,1.095,0.205,1.305,0.947C826.654,505.509,825.535,507.022,823.598,507.301z"/>
</svg>
